<svg xmlns="http://www.w3.org/2000/svg" width="1600" height="1000" viewBox="0 0 1600 1000"><defs><linearGradient id="space" x1="0" y1="0" x2="0" y2="1"><stop offset="0" stop-color="#050718" stop-opacity="1"/><stop offset="1" stop-color="#140a26" stop-opacity="1"/></linearGradient><radialGradient id="neb1" cx="0.5" cy="0.5" r="0.5"><stop offset="0" stop-color="#8a4bd8" stop-opacity="0.85"/><stop offset="1" stop-color="#8a4bd8" stop-opacity="0"/></radialGradient><radialGradient id="neb2" cx="0.5" cy="0.5" r="0.5"><stop offset="0" stop-color="#3f7fe0" stop-opacity="0.8"/><stop offset="1" stop-color="#3f7fe0" stop-opacity="0"/></radialGradient><radialGradient id="neb3" cx="0.5" cy="0.5" r="0.5"><stop offset="0" stop-color="#e0568f" stop-opacity="0.75"/><stop offset="1" stop-color="#e0568f" stop-opacity="0"/></radialGradient><radialGradient id="planet" cx="0.35" cy="0.32" r="0.75"><stop offset="0" stop-color="#f7d9a8" stop-opacity="1"/><stop offset="0.6" stop-color="#c88a4e" stop-opacity="1"/><stop offset="1" stop-color="#6d3f28" stop-opacity="1"/></radialGradient></defs><rect x="0" y="0" width="1600" height="1000" fill="url(#space)"/><ellipse cx="1172.6" cy="332.21" rx="238.32" ry="245.11" fill="url(#neb1)" opacity="0.55"/><ellipse cx="1399.93" cy="797.43" rx="362.06" ry="301.41" fill="url(#neb2)" opacity="0.55"/><ellipse cx="78.51" cy="695.81" rx="329.86" ry="290.77" fill="url(#neb3)" opacity="0.55"/><ellipse cx="1117.87" cy="988.69" rx="170.23" ry="129" fill="url(#neb1)" opacity="0.55"/><ellipse cx="1532.52" cy="145.27" rx="155.92" ry="208.28" fill="url(#neb2)" opacity="0.55"/><ellipse cx="823.88" cy="949.95" rx="200.69" ry="124.32" fill="url(#neb3)" opacity="0.55"/><ellipse cx="770.33" cy="850.19" rx="362.24" ry="180" fill="url(#neb1)" opacity="0.55"/><ellipse cx="1296.77" cy="977.08" rx="312.67" ry="155.61" fill="url(#neb2)" opacity="0.55"/><ellipse cx="1474.92" cy="253.76" rx="289.81" ry="247.1" fill="url(#neb3)" opacity="0.55"/><ellipse cx="1445.07" cy="896.21" rx="144.65" ry="147.32" fill="url(#neb1)" opacity="0.55"/><ellipse cx="1417.4" cy="456.51" rx="416.92" ry="368.27" fill="url(#neb2)" opacity="0.55"/><ellipse cx="704.32" cy="746.79" rx="313.94" ry="250.75" fill="url(#neb3)" opacity="0.55"/><ellipse cx="1577.81" cy="564.32" rx="187" ry="140.9" fill="url(#neb1)" opacity="0.55"/><ellipse cx="231.89" cy="918.36" rx="277.36" ry="173.7" fill="url(#neb2)" opacity="0.55"/><ellipse cx="1379.99" cy="673.18" rx="179.46" ry="157.71" fill="url(#neb3)" opacity="0.55"/><ellipse cx="1412.16" cy="842.76" rx="353.66" ry="192.87" fill="url(#neb1)" opacity="0.55"/><ellipse cx="1480.2" cy="631.08" rx="448.87" ry="316.02" fill="url(#neb2)" opacity="0.55"/><ellipse cx="1505.89" cy="735.27" rx="271.81" ry="350.55" fill="url(#neb3)" opacity="0.55"/><ellipse cx="401.77" cy="448.07" rx="386.96" ry="337.38" fill="url(#neb1)" opacity="0.55"/><ellipse cx="758.55" cy="685.44" rx="163.86" ry="155.72" fill="url(#neb2)" opacity="0.55"/><ellipse cx="1341.67" cy="436.01" rx="610.22" ry="336.22" fill="url(#neb3)" opacity="0.55"/><ellipse cx="1357.52" cy="309.2" rx="141.28" ry="154.98" fill="url(#neb1)" opacity="0.55"/><circle cx="1428.71" cy="191.57" r="2.4" fill="#ffffff" opacity="0.26"/><circle cx="1155.77" cy="741.96" r="0.55" fill="#ffffff" opacity="0.72"/><circle cx="1369.16" cy="242.11" r="1.52" fill="#ffffff" opacity="0.69"/><circle cx="327.42" cy="122.83" r="1.09" fill="#ffffff" opacity="0.61"/><circle cx="813.94" cy="346.74" r="1.74" fill="#ffffff" opacity="0.91"/><circle cx="746.87" cy="673" r="1.86" fill="#ffffff" opacity="0.65"/><circle cx="1367.21" cy="351.87" r="2.25" fill="#ffffff" opacity="0.31"/><circle cx="1455.19" cy="638.46" r="1.98" fill="#ffffff" opacity="0.55"/><circle cx="809.82" cy="618.06" r="2.19" fill="#ffffff" opacity="0.72"/><circle cx="1595.35" cy="487.95" r="2.09" fill="#ffffff" opacity="0.33"/><circle cx="1529.51" cy="144.47" r="1.65" fill="#ffffff" opacity="0.52"/><circle cx="549.78" cy="205.58" r="2.22" fill="#ffffff" opacity="0.29"/><circle cx="440.68" cy="714.09" r="1.14" fill="#ffffff" opacity="0.59"/><circle cx="183.98" cy="26.27" r="1.22" fill="#ffffff" opacity="0.26"/><circle cx="945.63" cy="289.72" r="1.81" fill="#ffffff" opacity="0.93"/><circle cx="1108.92" cy="172.86" r="1.6" fill="#ffffff" opacity="0.42"/><circle cx="186.44" cy="659.66" r="0.85" fill="#ffffff" opacity="0.86"/><circle cx="310.74" cy="336.99" r="2.51" fill="#ffffff" opacity="0.86"/><circle cx="1138.76" cy="22.47" r="0.71" fill="#ffffff" opacity="0.84"/><circle cx="967.23" cy="193.6" r="0.58" fill="#ffffff" opacity="0.84"/><circle cx="978.59" cy="989.34" r="1.22" fill="#ffffff" opacity="0.33"/><circle cx="1086.3" cy="861.03" r="1.95" fill="#ffffff" opacity="0.55"/><circle cx="189.83" cy="741.68" r="0.94" fill="#ffffff" opacity="0.55"/><circle cx="1103.36" cy="554.25" r="1.85" fill="#ffffff" opacity="0.31"/><circle cx="1163.77" cy="163.89" r="1.27" fill="#ffffff" opacity="0.82"/><circle cx="657.53" cy="929.2" r="2.35" fill="#ffffff" opacity="0.58"/><circle cx="1577.51" cy="356.03" r="0.45" fill="#ffffff" opacity="0.36"/><circle cx="1532.25" cy="577.99" r="0.52" fill="#ffffff" opacity="0.62"/><circle cx="432.06" cy="91.36" r="1.22" fill="#ffffff" opacity="0.48"/><circle cx="1032.7" cy="856.17" r="1.85" fill="#ffffff" opacity="0.6"/><circle cx="721.04" cy="335.79" r="2.54" fill="#ffffff" opacity="0.45"/><circle cx="25.39" cy="736.95" r="0.6" fill="#ffffff" opacity="0.62"/><circle cx="505.88" cy="141.86" r="2.49" fill="#ffffff" opacity="0.28"/><circle cx="536.23" cy="145.93" r="1.62" fill="#ffffff" opacity="0.5"/><circle cx="244.31" cy="816.63" r="1.28" fill="#ffffff" opacity="0.54"/><circle cx="219.03" cy="737.22" r="1.23" fill="#ffffff" opacity="0.7"/><circle cx="320.36" cy="468.07" r="1.4" fill="#ffffff" opacity="0.64"/><circle cx="176.78" cy="373.71" r="0.41" fill="#ffffff" opacity="0.35"/><circle cx="1287.91" cy="516.59" r="2.18" fill="#ffffff" opacity="0.6"/><circle cx="649.5" cy="400.61" r="0.96" fill="#ffffff" opacity="0.39"/><circle cx="228.9" cy="572.57" r="1.37" fill="#ffffff" opacity="0.94"/><circle cx="739.34" cy="216.56" r="1.51" fill="#ffffff" opacity="0.25"/><circle cx="1493.53" cy="780.99" r="2.54" fill="#ffffff" opacity="0.94"/><circle cx="353.96" cy="457.44" r="1.07" fill="#ffffff" opacity="0.67"/><circle cx="745.29" cy="844.59" r="1.12" fill="#ffffff" opacity="0.46"/><circle cx="1581.63" cy="790.32" r="0.7" fill="#ffffff" opacity="0.66"/><circle cx="1089.77" cy="705.66" r="2.08" fill="#ffffff" opacity="0.24"/><circle cx="418.01" cy="648.23" r="0.94" fill="#ffffff" opacity="0.3"/><circle cx="1592.39" cy="658.3" r="2.26" fill="#ffffff" opacity="0.78"/><circle cx="641.3" cy="860.43" r="1.17" fill="#ffffff" opacity="0.45"/><circle cx="1132.62" cy="961.5" r="1.15" fill="#ffffff" opacity="0.29"/><circle cx="1115.27" cy="350.23" r="2.39" fill="#ffffff" opacity="0.36"/><circle cx="39" cy="173.78" r="0.95" fill="#ffffff" opacity="0.43"/><circle cx="1202.79" cy="713.67" r="1.21" fill="#ffffff" opacity="0.32"/><circle cx="844.04" cy="62.33" r="1.66" fill="#ffffff" opacity="0.55"/><circle cx="703.91" cy="228.99" r="2.16" fill="#ffffff" opacity="0.29"/><circle cx="421.52" cy="243.32" r="2.26" fill="#ffffff" opacity="0.44"/><circle cx="1136.65" cy="545.94" r="0.78" fill="#ffffff" opacity="0.26"/><circle cx="243.6" cy="238.96" r="2.21" fill="#ffffff" opacity="0.23"/><circle cx="58.08" cy="432.65" r="0.6" fill="#ffffff" opacity="0.63"/><circle cx="234.89" cy="933.96" r="0.96" fill="#ffffff" opacity="0.87"/><circle cx="142.56" cy="707.65" r="1.74" fill="#ffffff" opacity="0.52"/><circle cx="752.38" cy="739.67" r="1.54" fill="#ffffff" opacity="0.62"/><circle cx="239.72" cy="10.08" r="2.35" fill="#ffffff" opacity="0.66"/><circle cx="430.02" cy="405.36" r="1.7" fill="#ffffff" opacity="0.36"/><circle cx="847" cy="515.93" r="2.58" fill="#ffffff" opacity="0.49"/><circle cx="997.98" cy="216.38" r="1.52" fill="#ffffff" opacity="0.63"/><circle cx="171.1" cy="711.89" r="2.36" fill="#ffffff" opacity="0.95"/><circle cx="1277.86" cy="148.3" r="1.89" fill="#ffffff" opacity="0.83"/><circle cx="1081.36" cy="295.69" r="0.67" fill="#ffffff" opacity="0.69"/><circle cx="598.51" cy="912.59" r="1.92" fill="#ffffff" opacity="0.41"/><circle cx="989.58" cy="751.63" r="1.39" fill="#ffffff" opacity="0.82"/><circle cx="384.25" cy="821.49" r="0.41" fill="#ffffff" opacity="0.51"/><circle cx="736.12" cy="967.71" r="2.54" fill="#ffffff" opacity="0.32"/><circle cx="730.96" cy="195.73" r="1.75" fill="#ffffff" opacity="0.22"/><circle cx="581.98" cy="715.59" r="1.33" fill="#ffffff" opacity="0.88"/><circle cx="411.8" cy="230.01" r="0.81" fill="#ffffff" opacity="0.86"/><circle cx="780.82" cy="847.01" r="2.14" fill="#ffffff" opacity="0.82"/><circle cx="317.22" cy="952.45" r="1.12" fill="#ffffff" opacity="0.42"/><circle cx="1562.87" cy="329.03" r="1.42" fill="#ffffff" opacity="0.22"/><circle cx="1109.43" cy="289.89" r="0.41" fill="#ffffff" opacity="0.71"/><circle cx="787.9" cy="183.55" r="0.51" fill="#ffffff" opacity="0.69"/><circle cx="800.85" cy="362.44" r="1.94" fill="#ffffff" opacity="0.47"/><circle cx="1461.69" cy="44.18" r="2.24" fill="#ffffff" opacity="0.56"/><circle cx="1117.16" cy="990.02" r="1.74" fill="#ffffff" opacity="0.67"/><circle cx="1376.18" cy="122.07" r="1.53" fill="#ffffff" opacity="0.56"/><circle cx="1120.91" cy="644.98" r="1.47" fill="#ffffff" opacity="0.33"/><circle cx="1085.57" cy="436.65" r="0.95" fill="#ffffff" opacity="0.32"/><circle cx="139.04" cy="915.39" r="2.21" fill="#ffffff" opacity="0.31"/><circle cx="1114.43" cy="691.39" r="1.87" fill="#ffffff" opacity="0.86"/><circle cx="1342.78" cy="294.37" r="1.63" fill="#ffffff" opacity="0.81"/><circle cx="651.62" cy="995.75" r="1" fill="#ffffff" opacity="0.72"/><circle cx="1531.83" cy="625.97" r="1.37" fill="#ffffff" opacity="0.79"/><circle cx="247.71" cy="700.78" r="0.54" fill="#ffffff" opacity="0.77"/><circle cx="1037.2" cy="641.32" r="1.74" fill="#ffffff" opacity="0.52"/><circle cx="1086.68" cy="515.47" r="2.01" fill="#ffffff" opacity="0.9"/><circle cx="1339.07" cy="705.26" r="1.86" fill="#ffffff" opacity="0.27"/><circle cx="1166.03" cy="934.92" r="1.24" fill="#ffffff" opacity="0.57"/><circle cx="935.2" cy="10.11" r="0.42" fill="#ffffff" opacity="0.22"/><circle cx="1449.97" cy="800.63" r="1.57" fill="#ffffff" opacity="0.88"/><circle cx="523.3" cy="562.59" r="1.35" fill="#ffffff" opacity="0.77"/><circle cx="1047.28" cy="267.75" r="0.51" fill="#ffffff" opacity="0.56"/><circle cx="1537.03" cy="186.21" r="2.52" fill="#ffffff" opacity="0.24"/><circle cx="216.74" cy="756.33" r="0.55" fill="#ffffff" opacity="0.54"/><circle cx="281.52" cy="633.12" r="1.61" fill="#ffffff" opacity="0.67"/><circle cx="1512.94" cy="770.72" r="0.7" fill="#ffffff" opacity="0.65"/><circle cx="906.69" cy="687.69" r="1.95" fill="#ffffff" opacity="0.76"/><circle cx="1235.8" cy="338.76" r="2.44" fill="#ffffff" opacity="0.52"/><circle cx="1407.72" cy="147.72" r="2.49" fill="#ffffff" opacity="0.87"/><circle cx="1344.07" cy="831.63" r="1.43" fill="#ffffff" opacity="0.36"/><circle cx="337.61" cy="346.44" r="1.16" fill="#ffffff" opacity="0.8"/><circle cx="1480.47" cy="915.28" r="1.26" fill="#ffffff" opacity="0.67"/><circle cx="1244.1" cy="839.76" r="1.22" fill="#ffffff" opacity="0.41"/><circle cx="1294.39" cy="177.52" r="2.37" fill="#ffffff" opacity="0.82"/><circle cx="476.04" cy="503.39" r="0.97" fill="#ffffff" opacity="0.56"/><circle cx="1578.9" cy="148.84" r="2.5" fill="#ffffff" opacity="0.69"/><circle cx="269.68" cy="526.73" r="1.47" fill="#ffffff" opacity="0.49"/><circle cx="721.78" cy="262.22" r="1.3" fill="#ffffff" opacity="0.7"/><circle cx="65.92" cy="660.88" r="0.43" fill="#ffffff" opacity="0.51"/><circle cx="750.12" cy="682.77" r="1.72" fill="#ffffff" opacity="0.93"/><circle cx="21.66" cy="821.36" r="1.99" fill="#ffffff" opacity="0.44"/><circle cx="1533.24" cy="987.6" r="1.11" fill="#ffffff" opacity="0.73"/><circle cx="167.47" cy="800.58" r="1.87" fill="#ffffff" opacity="0.34"/><circle cx="621.67" cy="690.21" r="2.43" fill="#ffffff" opacity="0.36"/><circle cx="789.55" cy="179.48" r="1.35" fill="#ffffff" opacity="0.95"/><circle cx="721.3" cy="482.21" r="0.84" fill="#ffffff" opacity="0.22"/><circle cx="1537.1" cy="832.35" r="0.72" fill="#ffffff" opacity="0.8"/><circle cx="283.8" cy="176.04" r="2.03" fill="#ffffff" opacity="0.3"/><circle cx="503.99" cy="320.04" r="2.38" fill="#ffffff" opacity="0.67"/><circle cx="1494.73" cy="270.78" r="1.67" fill="#ffffff" opacity="0.4"/><circle cx="666.13" cy="145.01" r="2.11" fill="#ffffff" opacity="0.77"/><circle cx="523.89" cy="955.13" r="1.73" fill="#ffffff" opacity="0.23"/><circle cx="657.72" cy="295.78" r="1.56" fill="#ffffff" opacity="0.22"/><circle cx="421.67" cy="843.68" r="1.14" fill="#ffffff" opacity="0.72"/><circle cx="1507.91" cy="84.98" r="1.93" fill="#ffffff" opacity="0.22"/><circle cx="1530.78" cy="790.74" r="0.84" fill="#ffffff" opacity="0.45"/><circle cx="205.33" cy="499.82" r="2.58" fill="#ffffff" opacity="0.93"/><circle cx="940.6" cy="30.57" r="2.44" fill="#ffffff" opacity="0.45"/><circle cx="761.47" cy="946.69" r="1.49" fill="#ffffff" opacity="0.27"/><circle cx="1002.13" cy="194.67" r="2.34" fill="#ffffff" opacity="0.6"/><circle cx="234.35" cy="744.08" r="1.27" fill="#ffffff" opacity="0.55"/><circle cx="1062.8" cy="198.87" r="1.99" fill="#ffffff" opacity="0.48"/><circle cx="206.6" cy="409.29" r="2.21" fill="#ffffff" opacity="0.53"/><circle cx="1050.64" cy="334.92" r="2.1" fill="#ffffff" opacity="0.87"/><circle cx="526.83" cy="34.68" r="1.18" fill="#ffffff" opacity="0.36"/><circle cx="1505.76" cy="428.67" r="1.97" fill="#ffffff" opacity="0.44"/><circle cx="672.67" cy="866.93" r="1.34" fill="#ffffff" opacity="0.52"/><circle cx="11.11" cy="569.9" r="0.75" fill="#ffffff" opacity="0.76"/><circle cx="1204.56" cy="388.4" r="0.75" fill="#ffffff" opacity="0.92"/><circle cx="1087.68" cy="261.75" r="2.03" fill="#ffffff" opacity="0.53"/><circle cx="3.15" cy="793.72" r="0.42" fill="#ffffff" opacity="0.92"/><circle cx="1337.66" cy="395.02" r="2.11" fill="#ffffff" opacity="0.28"/><circle cx="245.04" cy="858.03" r="1.82" fill="#ffffff" opacity="0.26"/><circle cx="594.42" cy="949.56" r="0.45" fill="#ffffff" opacity="0.93"/><circle cx="1273.71" cy="831.35" r="0.44" fill="#ffffff" opacity="0.58"/><circle cx="1448.38" cy="822.21" r="2.01" fill="#ffffff" opacity="0.39"/><circle cx="545.78" cy="909.61" r="1.86" fill="#ffffff" opacity="0.42"/><circle cx="437.32" cy="566.48" r="1.33" fill="#ffffff" opacity="0.38"/><circle cx="1171.4" cy="80.91" r="2.6" fill="#ffffff" opacity="0.59"/><circle cx="1502.98" cy="983.73" r="0.97" fill="#ffffff" opacity="0.93"/><circle cx="514.1" cy="101.58" r="1.74" fill="#ffffff" opacity="0.34"/><circle cx="781.41" cy="124.23" r="0.79" fill="#ffffff" opacity="0.61"/><circle cx="774.25" cy="876.88" r="2.59" fill="#ffffff" opacity="0.65"/><circle cx="1042.23" cy="407.04" r="1.06" fill="#ffffff" opacity="0.57"/><circle cx="1515.14" cy="802.92" r="1.91" fill="#ffffff" opacity="0.39"/><circle cx="969.66" cy="156.1" r="0.42" fill="#ffffff" opacity="0.93"/><circle cx="697.07" cy="382.08" r="0.74" fill="#ffffff" opacity="0.85"/><circle cx="1075.34" cy="737" r="2.02" fill="#ffffff" opacity="0.62"/><circle cx="1460.95" cy="377.18" r="0.97" fill="#ffffff" opacity="0.81"/><circle cx="1127.97" cy="473.53" r="1.52" fill="#ffffff" opacity="0.42"/><circle cx="891.33" cy="4.7" r="1.39" fill="#ffffff" opacity="0.43"/><circle cx="491.48" cy="402.81" r="1.85" fill="#ffffff" opacity="0.83"/><circle cx="1209.83" cy="361.55" r="2.3" fill="#ffffff" opacity="0.39"/><circle cx="809.23" cy="215.91" r="2.1" fill="#ffffff" opacity="0.58"/><circle cx="76.13" cy="39.47" r="0.79" fill="#ffffff" opacity="0.28"/><circle cx="468.55" cy="812.69" r="2.34" fill="#ffffff" opacity="0.85"/><circle cx="642.76" cy="777.59" r="0.66" fill="#ffffff" opacity="0.32"/><circle cx="106.85" cy="434.17" r="0.56" fill="#ffffff" opacity="0.73"/><circle cx="1583.24" cy="679.15" r="1.63" fill="#ffffff" opacity="0.69"/><circle cx="1520.69" cy="614.28" r="2.46" fill="#ffffff" opacity="0.62"/><circle cx="881.17" cy="947.78" r="2.25" fill="#ffffff" opacity="0.64"/><circle cx="202.94" cy="556.77" r="1.15" fill="#ffffff" opacity="0.95"/><circle cx="414.97" cy="298.59" r="1.26" fill="#ffffff" opacity="0.67"/><circle cx="344.4" cy="314.75" r="1.42" fill="#ffffff" opacity="0.36"/><circle cx="1137.55" cy="309.96" r="1.9" fill="#ffffff" opacity="0.45"/><circle cx="1247.62" cy="745.35" r="1.07" fill="#ffffff" opacity="0.47"/><circle cx="653.48" cy="514.63" r="1.48" fill="#ffffff" opacity="0.63"/><circle cx="1455.48" cy="331.49" r="1.52" fill="#ffffff" opacity="0.69"/><circle cx="1223.63" cy="790.13" r="1.78" fill="#ffffff" opacity="0.52"/><circle cx="290.51" cy="974.59" r="0.57" fill="#ffffff" opacity="0.29"/><circle cx="44.4" cy="517.57" r="1.32" fill="#ffffff" opacity="0.62"/><circle cx="78.72" cy="682.43" r="2.29" fill="#ffffff" opacity="0.46"/><circle cx="727.19" cy="212.1" r="0.48" fill="#ffffff" opacity="0.36"/><circle cx="1124.16" cy="398.67" r="1.1" fill="#ffffff" opacity="0.89"/><circle cx="773.94" cy="798.82" r="0.43" fill="#ffffff" opacity="0.53"/><circle cx="1335.46" cy="706.09" r="2.39" fill="#ffffff" opacity="0.31"/><circle cx="1304.28" cy="58.39" r="1.91" fill="#ffffff" opacity="0.53"/><circle cx="1114.35" cy="611.7" r="0.77" fill="#ffffff" opacity="0.66"/><circle cx="812.65" cy="689.57" r="2.28" fill="#ffffff" opacity="0.33"/><circle cx="2.43" cy="587.62" r="1.75" fill="#ffffff" opacity="0.78"/><circle cx="544.11" cy="132.98" r="1.79" fill="#ffffff" opacity="0.84"/><circle cx="302.64" cy="992.88" r="0.66" fill="#ffffff" opacity="0.62"/><circle cx="1013.11" cy="330.49" r="2.12" fill="#ffffff" opacity="0.52"/><circle cx="1243.25" cy="733.28" r="0.95" fill="#ffffff" opacity="0.57"/><circle cx="849.51" cy="54.53" r="2.13" fill="#ffffff" opacity="0.49"/><circle cx="324.85" cy="633.67" r="1.38" fill="#ffffff" opacity="0.87"/><circle cx="498.36" cy="38.4" r="0.54" fill="#ffffff" opacity="0.54"/><circle cx="815.58" cy="776.89" r="0.81" fill="#ffffff" opacity="0.48"/><circle cx="228.35" cy="26.28" r="0.7" fill="#ffffff" opacity="0.8"/><circle cx="1345.91" cy="331.46" r="0.9" fill="#ffffff" opacity="0.32"/><circle cx="967.13" cy="408.48" r="2.54" fill="#ffffff" opacity="0.58"/><circle cx="47.97" cy="863.62" r="0.45" fill="#ffffff" opacity="0.83"/><circle cx="266.31" cy="982.57" r="1.48" fill="#ffffff" opacity="0.41"/><circle cx="33.27" cy="104.77" r="2.19" fill="#ffffff" opacity="0.68"/><circle cx="612.04" cy="387.69" r="0.69" fill="#ffffff" opacity="0.49"/><circle cx="897.79" cy="596.34" r="2.47" fill="#ffffff" opacity="0.86"/><circle cx="544.87" cy="80.26" r="2.44" fill="#ffffff" opacity="0.88"/><circle cx="674.47" cy="97.12" r="0.43" fill="#ffffff" opacity="0.3"/><circle cx="1412.08" cy="404.17" r="1.25" fill="#ffffff" opacity="0.41"/><circle cx="100.96" cy="885.05" r="0.72" fill="#ffffff" opacity="0.6"/><circle cx="1037.16" cy="567.25" r="2.53" fill="#ffffff" opacity="0.37"/><circle cx="1121.05" cy="983.2" r="1.81" fill="#ffffff" opacity="0.93"/><circle cx="561.86" cy="100.99" r="2.09" fill="#ffffff" opacity="0.85"/><circle cx="1303.34" cy="405.02" r="2.12" fill="#ffffff" opacity="0.5"/><circle cx="1282.77" cy="438.34" r="0.94" fill="#ffffff" opacity="0.77"/><circle cx="1352.24" cy="22.31" r="1.57" fill="#ffffff" opacity="0.75"/><circle cx="763.73" cy="121.74" r="0.73" fill="#ffffff" opacity="0.79"/><circle cx="27.49" cy="93.96" r="2.02" fill="#ffffff" opacity="0.56"/><circle cx="924.85" cy="251.85" r="2.59" fill="#ffffff" opacity="0.91"/><circle cx="130.05" cy="654.43" r="0.55" fill="#ffffff" opacity="0.81"/><circle cx="350.43" cy="321.74" r="2.57" fill="#ffffff" opacity="0.95"/><circle cx="912.83" cy="105.11" r="1.83" fill="#ffffff" opacity="0.85"/><circle cx="1264.86" cy="489.49" r="1.23" fill="#ffffff" opacity="0.65"/><circle cx="1492" cy="429.13" r="1.86" fill="#ffffff" opacity="0.43"/><circle cx="1447.77" cy="207.23" r="2.59" fill="#ffffff" opacity="0.65"/><circle cx="1074.38" cy="98.94" r="0.47" fill="#ffffff" opacity="0.25"/><circle cx="581.94" cy="268" r="1.56" fill="#ffffff" opacity="0.24"/><circle cx="738.4" cy="654.45" r="0.42" fill="#ffffff" opacity="0.77"/><circle cx="965.39" cy="517.24" r="1.71" fill="#ffffff" opacity="0.21"/><circle cx="941.32" cy="571.83" r="1.3" fill="#ffffff" opacity="0.28"/><circle cx="625.98" cy="520.58" r="1.54" fill="#ffffff" opacity="0.6"/><circle cx="1217.81" cy="962.14" r="0.87" fill="#ffffff" opacity="0.42"/><circle cx="116.69" cy="265.75" r="1.77" fill="#ffffff" opacity="0.71"/><circle cx="1010.44" cy="916.85" r="2.15" fill="#ffffff" opacity="0.32"/><circle cx="604.43" cy="562.31" r="1.8" fill="#ffffff" opacity="0.39"/><circle cx="979.07" cy="284.95" r="0.9" fill="#ffffff" opacity="0.61"/><circle cx="1575.05" cy="946.11" r="1.46" fill="#ffffff" opacity="0.23"/><circle cx="536.99" cy="86.09" r="2.13" fill="#ffffff" opacity="0.93"/><circle cx="259.45" cy="78.38" r="1.93" fill="#ffffff" opacity="0.34"/><circle cx="988.65" cy="649.76" r="2.13" fill="#ffffff" opacity="0.3"/><circle cx="1410.62" cy="476.26" r="2.52" fill="#ffffff" opacity="0.42"/><circle cx="330.05" cy="219.66" r="2.04" fill="#ffffff" opacity="0.33"/><circle cx="475.57" cy="121.78" r="1.43" fill="#ffffff" opacity="0.66"/><circle cx="1270.59" cy="553.86" r="2.29" fill="#ffffff" opacity="0.69"/><circle cx="1573.6" cy="286.39" r="0.43" fill="#ffffff" opacity="0.7"/><circle cx="913.17" cy="510.38" r="2.33" fill="#ffffff" opacity="0.71"/><circle cx="1520.57" cy="608.36" r="1.61" fill="#ffffff" opacity="0.73"/><circle cx="1055.59" cy="679.45" r="1.74" fill="#ffffff" opacity="0.45"/><circle cx="1196.77" cy="388.9" r="0.83" fill="#ffffff" opacity="0.47"/><circle cx="241.48" cy="854.42" r="2.17" fill="#ffffff" opacity="0.73"/><circle cx="1129.29" cy="625.17" r="2.31" fill="#ffffff" opacity="0.24"/><circle cx="861.85" cy="87.42" r="2.57" fill="#ffffff" opacity="0.25"/><circle cx="1233.02" cy="508.55" r="1.58" fill="#ffffff" opacity="0.88"/><circle cx="1413.69" cy="276.36" r="2.43" fill="#ffffff" opacity="0.94"/><circle cx="365.2" cy="418.82" r="0.75" fill="#ffffff" opacity="0.39"/><circle cx="1530.13" cy="407.5" r="1.34" fill="#ffffff" opacity="0.47"/><circle cx="39.03" cy="13.43" r="1.19" fill="#ffffff" opacity="0.51"/><circle cx="1545.33" cy="425.7" r="2.07" fill="#ffffff" opacity="0.51"/><circle cx="1082.95" cy="367.48" r="2.41" fill="#ffffff" opacity="0.66"/><circle cx="1004.23" cy="931.89" r="1.74" fill="#ffffff" opacity="0.94"/><circle cx="1109.78" cy="166.81" r="1.91" fill="#ffffff" opacity="0.53"/><circle cx="645.85" cy="298.45" r="2.47" fill="#ffffff" opacity="0.36"/><circle cx="1389.62" cy="214.95" r="1.03" fill="#ffffff" opacity="0.85"/><circle cx="848.93" cy="333.06" r="1.18" fill="#ffffff" opacity="0.49"/><circle cx="1322.46" cy="820.9" r="1.86" fill="#ffffff" opacity="0.79"/><circle cx="378.86" cy="329.45" r="0.79" fill="#ffffff" opacity="0.65"/><circle cx="691.11" cy="565.87" r="2.41" fill="#ffffff" opacity="0.33"/><circle cx="290.13" cy="784.13" r="1.4" fill="#ffffff" opacity="0.56"/><circle cx="229.37" cy="103.98" r="1.63" fill="#ffffff" opacity="0.59"/><circle cx="194.55" cy="90.97" r="0.9" fill="#ffffff" opacity="0.5"/><circle cx="1568.58" cy="341.33" r="2.43" fill="#ffffff" opacity="0.45"/><circle cx="486.07" cy="785.98" r="2.54" fill="#ffffff" opacity="0.42"/><circle cx="301.21" cy="605.71" r="2.01" fill="#ffffff" opacity="0.28"/><circle cx="989.52" cy="138.58" r="0.9" fill="#ffffff" opacity="0.75"/><circle cx="204.84" cy="776.84" r="1.7" fill="#ffffff" opacity="0.51"/><circle cx="1088.32" cy="390.49" r="2.47" fill="#ffffff" opacity="0.3"/><circle cx="1213.7" cy="203.01" r="1" fill="#ffffff" opacity="0.45"/><circle cx="470.15" cy="509.55" r="1.11" fill="#ffffff" opacity="0.87"/><circle cx="1017.07" cy="51.5" r="0.98" fill="#ffffff" opacity="0.37"/><circle cx="1060.7" cy="688" r="1.63" fill="#ffffff" opacity="0.48"/><circle cx="1335.8" cy="650.19" r="1.19" fill="#ffffff" opacity="0.39"/><circle cx="1418.59" cy="402.17" r="2.12" fill="#ffffff" opacity="0.47"/><circle cx="1348.52" cy="676.66" r="1.13" fill="#ffffff" opacity="0.32"/><circle cx="333.08" cy="463.25" r="0.45" fill="#ffffff" opacity="0.52"/><circle cx="20.66" cy="681.59" r="2.31" fill="#ffffff" opacity="0.8"/><circle cx="147.45" cy="613.71" r="2.3" fill="#ffffff" opacity="0.65"/><circle cx="740.83" cy="194.24" r="1.99" fill="#ffffff" opacity="0.39"/><circle cx="31.98" cy="215.56" r="1.6" fill="#ffffff" opacity="0.28"/><circle cx="536" cy="455.17" r="0.69" fill="#ffffff" opacity="0.71"/><circle cx="259.69" cy="682.7" r="1.32" fill="#ffffff" opacity="0.27"/><circle cx="647.89" cy="52.17" r="0.87" fill="#ffffff" opacity="0.22"/><circle cx="802.81" cy="514.7" r="0.69" fill="#ffffff" opacity="0.68"/><circle cx="424.83" cy="233.29" r="0.98" fill="#ffffff" opacity="0.36"/><circle cx="1441.78" cy="746.1" r="0.89" fill="#ffffff" opacity="0.42"/><circle cx="1459.1" cy="913.77" r="1.47" fill="#ffffff" opacity="0.22"/><circle cx="802.51" cy="808.53" r="0.84" fill="#ffffff" opacity="0.52"/><circle cx="955.51" cy="262.8" r="1.48" fill="#ffffff" opacity="0.87"/><circle cx="82.49" cy="128.11" r="0.66" fill="#ffffff" opacity="0.44"/><circle cx="1443.65" cy="736.23" r="2.15" fill="#ffffff" opacity="0.49"/><circle cx="422.03" cy="189.46" r="1.73" fill="#ffffff" opacity="0.56"/><circle cx="291.73" cy="351.87" r="0.96" fill="#ffffff" opacity="0.56"/><circle cx="1548.96" cy="659.73" r="1.94" fill="#ffffff" opacity="0.55"/><circle cx="1506.1" cy="619.82" r="0.81" fill="#ffffff" opacity="0.43"/><circle cx="20.7" cy="273.05" r="2" fill="#ffffff" opacity="0.73"/><circle cx="1089.68" cy="153.67" r="1.37" fill="#ffffff" opacity="0.6"/><circle cx="344.74" cy="660.19" r="0.89" fill="#ffffff" opacity="0.87"/><circle cx="757.32" cy="985.61" r="2.43" fill="#ffffff" opacity="0.33"/><circle cx="285.32" cy="206.81" r="0.93" fill="#ffffff" opacity="0.81"/><circle cx="1067.81" cy="870.86" r="1.9" fill="#ffffff" opacity="0.43"/><circle cx="1295.11" cy="309.4" r="1.56" fill="#ffffff" opacity="0.72"/><circle cx="1487.35" cy="252.15" r="0.8" fill="#ffffff" opacity="0.59"/><circle cx="1174.51" cy="689.04" r="0.98" fill="#ffffff" opacity="0.87"/><circle cx="859.38" cy="680.45" r="2.53" fill="#ffffff" opacity="0.29"/><circle cx="312.45" cy="881.27" r="1.71" fill="#ffffff" opacity="0.42"/><circle cx="187.6" cy="546.42" r="0.42" fill="#ffffff" opacity="0.24"/><circle cx="727.11" cy="0.66" r="1.52" fill="#ffffff" opacity="0.76"/><circle cx="559.83" cy="594.83" r="2.05" fill="#ffffff" opacity="0.83"/><circle cx="1320.65" cy="950.52" r="2.15" fill="#ffffff" opacity="0.61"/><circle cx="96.93" cy="420.86" r="1.33" fill="#ffffff" opacity="0.34"/><circle cx="1542.49" cy="709.86" r="2.22" fill="#ffffff" opacity="0.78"/><circle cx="1441.65" cy="749.36" r="1.76" fill="#ffffff" opacity="0.59"/><circle cx="620.7" cy="322.74" r="0.8" fill="#ffffff" opacity="0.4"/><circle cx="1083.95" cy="979.73" r="2.29" fill="#ffffff" opacity="0.36"/><circle cx="1583.43" cy="213.28" r="1.35" fill="#ffffff" opacity="0.86"/><circle cx="25.2" cy="400.72" r="2.13" fill="#ffffff" opacity="0.36"/><circle cx="815.3" cy="914.59" r="1.42" fill="#ffffff" opacity="0.37"/><circle cx="1467.42" cy="271.07" r="1.81" fill="#ffffff" opacity="0.36"/><circle cx="884.78" cy="8.48" r="1.71" fill="#ffffff" opacity="0.94"/><circle cx="87.94" cy="292.65" r="2.29" fill="#ffffff" opacity="0.4"/><circle cx="1593.75" cy="126.67" r="1.39" fill="#ffffff" opacity="0.91"/><circle cx="511.56" cy="91.89" r="0.54" fill="#ffffff" opacity="0.42"/><circle cx="1102.23" cy="936.19" r="1.74" fill="#ffffff" opacity="0.26"/><circle cx="303.17" cy="186.24" r="1.99" fill="#ffffff" opacity="0.66"/><circle cx="260.81" cy="811.92" r="0.76" fill="#ffffff" opacity="0.36"/><circle cx="1084.27" cy="594.67" r="2.32" fill="#ffffff" opacity="0.93"/><circle cx="563.04" cy="209" r="0.44" fill="#ffffff" opacity="0.5"/><circle cx="1538.15" cy="618.98" r="2.35" fill="#ffffff" opacity="0.27"/><circle cx="1362.78" cy="187.33" r="1.16" fill="#ffffff" opacity="0.52"/><circle cx="57.46" cy="191.49" r="0.63" fill="#ffffff" opacity="0.58"/><circle cx="436" cy="799.23" r="1.18" fill="#ffffff" opacity="0.63"/><circle cx="482.31" cy="433.59" r="0.8" fill="#ffffff" opacity="0.66"/><circle cx="676.92" cy="574.83" r="1.56" fill="#ffffff" opacity="0.92"/><circle cx="56.68" cy="550.5" r="1.8" fill="#ffffff" opacity="0.31"/><circle cx="938.11" cy="126.01" r="0.84" fill="#ffffff" opacity="0.32"/><circle cx="266.22" cy="461.66" r="1.97" fill="#ffffff" opacity="0.48"/><circle cx="1002.13" cy="866.27" r="0.42" fill="#ffffff" opacity="0.9"/><circle cx="94.49" cy="975.8" r="1.9" fill="#ffffff" opacity="0.58"/><circle cx="69.01" cy="130.28" r="1.96" fill="#ffffff" opacity="0.8"/><circle cx="202.62" cy="509.01" r="1.32" fill="#ffffff" opacity="0.69"/><circle cx="1322.74" cy="334.27" r="1.42" fill="#ffffff" opacity="0.48"/><circle cx="606.57" cy="436.03" r="1.23" fill="#ffffff" opacity="0.2"/><circle cx="1594.31" cy="541" r="2.35" fill="#ffffff" opacity="0.31"/><circle cx="741.08" cy="545.64" r="1.82" fill="#ffffff" opacity="0.71"/><circle cx="1200.26" cy="626.07" r="0.59" fill="#ffffff" opacity="0.29"/><circle cx="1581.69" cy="71.35" r="1.97" fill="#ffffff" opacity="0.6"/><circle cx="1587.95" cy="650.63" r="2.54" fill="#ffffff" opacity="0.45"/><circle cx="189.78" cy="731.05" r="0.44" fill="#ffffff" opacity="0.54"/><circle cx="502.02" cy="388.21" r="1.37" fill="#ffffff" opacity="0.61"/><circle cx="1013.34" cy="740.84" r="0.84" fill="#ffffff" opacity="0.53"/><circle cx="1335.09" cy="681.91" r="1.66" fill="#ffffff" opacity="0.41"/><circle cx="1578.08" cy="293.9" r="0.86" fill="#ffffff" opacity="0.81"/><circle cx="767.6" cy="69.52" r="2.33" fill="#ffffff" opacity="0.31"/><circle cx="1184.63" cy="700.97" r="1.3" fill="#ffffff" opacity="0.43"/><circle cx="677.4" cy="547.93" r="0.82" fill="#ffffff" opacity="0.54"/><circle cx="1113.44" cy="425.88" r="0.54" fill="#ffffff" opacity="0.65"/><circle cx="760.54" cy="852.25" r="1.96" fill="#ffffff" opacity="0.69"/><circle cx="834.74" cy="924.41" r="2.39" fill="#ffffff" opacity="0.69"/><circle cx="1489.55" cy="969.74" r="1.73" fill="#ffffff" opacity="0.29"/><circle cx="1416.08" cy="418.99" r="1.9" fill="#ffffff" opacity="0.35"/><circle cx="1331.66" cy="721.63" r="2.08" fill="#ffffff" opacity="0.34"/><circle cx="1190.37" cy="402.06" r="0.67" fill="#ffffff" opacity="0.67"/><circle cx="1575.87" cy="318.11" r="1.6" fill="#ffffff" opacity="0.92"/><circle cx="1315.2" cy="666.58" r="1.72" fill="#ffffff" opacity="0.89"/><circle cx="902.98" cy="525.27" r="0.9" fill="#ffffff" opacity="0.4"/><circle cx="666.49" cy="241.07" r="1.13" fill="#ffffff" opacity="0.66"/><circle cx="183.28" cy="457.51" r="0.6" fill="#ffffff" opacity="0.61"/><circle cx="483.31" cy="534.2" r="2.27" fill="#ffffff" opacity="0.64"/><circle cx="793.87" cy="855.52" r="1.68" fill="#ffffff" opacity="0.93"/><circle cx="462.31" cy="869.57" r="2.28" fill="#ffffff" opacity="0.94"/><circle cx="331.07" cy="139.17" r="2.46" fill="#ffffff" opacity="0.8"/><circle cx="1051.27" cy="569.36" r="1.72" fill="#ffffff" opacity="0.54"/><circle cx="1072.57" cy="27.78" r="0.67" fill="#ffffff" opacity="0.87"/><circle cx="1240.16" cy="683.59" r="1.76" fill="#ffffff" opacity="0.86"/><circle cx="1510.69" cy="862.8" r="0.62" fill="#ffffff" opacity="0.55"/><circle cx="53.23" cy="766.67" r="1.8" fill="#ffffff" opacity="0.65"/><circle cx="165.16" cy="687.47" r="2.1" fill="#ffffff" opacity="0.49"/><circle cx="1131.54" cy="355.08" r="1.47" fill="#ffffff" opacity="0.82"/><circle cx="716.79" cy="350.45" r="2.57" fill="#ffffff" opacity="0.34"/><circle cx="461.48" cy="730.97" r="1.04" fill="#ffffff" opacity="0.44"/><circle cx="590.25" cy="889.24" r="1.01" fill="#ffffff" opacity="0.61"/><circle cx="1562.44" cy="547.22" r="0.74" fill="#ffffff" opacity="0.22"/><circle cx="1594.85" cy="631.63" r="2.35" fill="#ffffff" opacity="0.67"/><circle cx="1556.34" cy="776.96" r="0.9" fill="#ffffff" opacity="0.9"/><circle cx="1164.43" cy="642.07" r="2.43" fill="#ffffff" opacity="0.86"/><circle cx="680.85" cy="199.44" r="2.47" fill="#ffffff" opacity="0.22"/><circle cx="212.01" cy="38.89" r="1.6" fill="#ffffff" opacity="0.36"/><circle cx="599.05" cy="242.19" r="0.72" fill="#ffffff" opacity="0.79"/><circle cx="103.84" cy="176.02" r="1.41" fill="#ffffff" opacity="0.39"/><circle cx="1347.38" cy="212.69" r="0.46" fill="#ffffff" opacity="0.37"/><circle cx="1524.78" cy="7.4" r="2.24" fill="#ffffff" opacity="0.64"/><circle cx="1113.24" cy="699.99" r="1.65" fill="#ffffff" opacity="0.32"/><circle cx="1346.83" cy="823.83" r="0.83" fill="#ffffff" opacity="0.94"/><circle cx="111.78" cy="789.15" r="0.54" fill="#ffffff" opacity="0.32"/><circle cx="345.62" cy="643.21" r="0.58" fill="#ffffff" opacity="0.77"/><circle cx="705.97" cy="640.05" r="2.49" fill="#ffffff" opacity="0.87"/><circle cx="151.59" cy="602.62" r="0.43" fill="#ffffff" opacity="0.94"/><circle cx="407.81" cy="760.66" r="2.44" fill="#ffffff" opacity="0.23"/><circle cx="572.46" cy="678.75" r="1.73" fill="#ffffff" opacity="0.34"/><circle cx="1187.9" cy="473.49" r="1.54" fill="#ffffff" opacity="0.63"/><circle cx="113.64" cy="478.55" r="0.42" fill="#ffffff" opacity="0.65"/><circle cx="1453.53" cy="298.36" r="6" fill="#ffffff"/><rect x="1433.53" y="296.86" width="40" height="3" fill="#ffffff" opacity="0.55"/><rect x="1452.03" y="278.36" width="3" height="40" fill="#ffffff" opacity="0.55"/><circle cx="1173.01" cy="215.52" r="6" fill="#ffffff"/><rect x="1153.01" y="214.02" width="40" height="3" fill="#ffffff" opacity="0.55"/><rect x="1171.51" y="195.52" width="3" height="40" fill="#ffffff" opacity="0.55"/><circle cx="467.32" cy="451.78" r="6" fill="#ffffff"/><rect x="447.32" y="450.28" width="40" height="3" fill="#ffffff" opacity="0.55"/><rect x="465.82" y="431.78" width="3" height="40" fill="#ffffff" opacity="0.55"/><circle cx="1216.73" cy="560.96" r="6" fill="#ffffff"/><rect x="1196.73" y="559.46" width="40" height="3" fill="#ffffff" opacity="0.55"/><rect x="1215.23" y="540.96" width="3" height="40" fill="#ffffff" opacity="0.55"/><circle cx="282.69" cy="651.63" r="6" fill="#ffffff"/><rect x="262.69" y="650.13" width="40" height="3" fill="#ffffff" opacity="0.55"/><rect x="281.19" y="631.63" width="3" height="40" fill="#ffffff" opacity="0.55"/><circle cx="1414.03" cy="597.45" r="6" fill="#ffffff"/><rect x="1394.03" y="595.95" width="40" height="3" fill="#ffffff" opacity="0.55"/><rect x="1412.53" y="577.45" width="3" height="40" fill="#ffffff" opacity="0.55"/><circle cx="1127.87" cy="179.09" r="6" fill="#ffffff"/><rect x="1107.87" y="177.59" width="40" height="3" fill="#ffffff" opacity="0.55"/><rect x="1126.37" y="159.09" width="3" height="40" fill="#ffffff" opacity="0.55"/><circle cx="536.94" cy="396.03" r="6" fill="#ffffff"/><rect x="516.94" y="394.53" width="40" height="3" fill="#ffffff" opacity="0.55"/><rect x="535.44" y="376.03" width="3" height="40" fill="#ffffff" opacity="0.55"/><circle cx="490.63" cy="160.94" r="6" fill="#ffffff"/><rect x="470.63" y="159.44" width="40" height="3" fill="#ffffff" opacity="0.55"/><rect x="489.13" y="140.94" width="3" height="40" fill="#ffffff" opacity="0.55"/><circle cx="140.42" cy="960.25" r="6" fill="#ffffff"/><rect x="120.42" y="958.75" width="40" height="3" fill="#ffffff" opacity="0.55"/><rect x="138.92" y="940.25" width="3" height="40" fill="#ffffff" opacity="0.55"/><circle cx="1421.48" cy="310.72" r="6" fill="#ffffff"/><rect x="1401.48" y="309.22" width="40" height="3" fill="#ffffff" opacity="0.55"/><rect x="1419.98" y="290.72" width="3" height="40" fill="#ffffff" opacity="0.55"/><circle cx="1094.9" cy="735.19" r="6" fill="#ffffff"/><rect x="1074.9" y="733.69" width="40" height="3" fill="#ffffff" opacity="0.55"/><rect x="1093.4" y="715.19" width="3" height="40" fill="#ffffff" opacity="0.55"/><g transform="rotate(-18 1152 350)"><ellipse cx="1152" cy="350" rx="357" ry="71.4" fill="none" stroke="#d9b382" stroke-opacity="0.75" stroke-width="27.2"/></g><circle cx="1152" cy="350" r="170" fill="url(#planet)"/><ellipse cx="1152" cy="248" rx="79.9" ry="11.9" fill="#a56a3c" opacity="0.45"/><ellipse cx="1152" cy="292.2" rx="107.1" ry="11.9" fill="#a56a3c" opacity="0.45"/><ellipse cx="1152" cy="336.4" rx="134.3" ry="11.9" fill="#a56a3c" opacity="0.45"/><ellipse cx="1152" cy="380.6" rx="161.5" ry="11.9" fill="#a56a3c" opacity="0.45"/><ellipse cx="1152" cy="424.8" rx="134.3" ry="11.9" fill="#a56a3c" opacity="0.45"/><ellipse cx="1152" cy="469" rx="107.1" ry="11.9" fill="#a56a3c" opacity="0.45"/><circle cx="1101" cy="307.5" r="30.6" fill="#e8c48f" opacity="0.5"/><circle cx="672" cy="720" r="45" fill="#c9c9d8"/><circle cx="689.81" cy="746.53" r="7.91" fill="#9a9ab0"/><circle cx="689.74" cy="707.17" r="8.75" fill="#9a9ab0"/><circle cx="697.42" cy="694.25" r="12.93" fill="#9a9ab0"/><circle cx="700.63" cy="696.03" r="12.91" fill="#9a9ab0"/><circle cx="692.28" cy="694.39" r="8.72" fill="#9a9ab0"/><circle cx="683.47" cy="706.66" r="10.6" fill="#9a9ab0"/></svg>
